<svg height="2222" width="720" xmlns="http://www.w3.org/2000/svg">
<rect height="2222" fill="#555" width="720"></rect>
<text fill="#7f7" font-family="Courier New" font-size="12" xml:space="preserve">
<tspan x="10" y="26">16 megabytes installed</tspan>
<tspan x="10" y="42"></tspan>
<tspan x="10" y="58">node_modules</tspan>
<tspan x="10" y="74">└─┬ level-party@3.0.4 </tspan>
<tspan x="10" y="90">  ├─┬ has@1.0.1 </tspan>
<tspan x="10" y="106">  │ └── function-bind@1.1.0 </tspan>
<tspan x="10" y="122">  ├─┬ level@1.6.0 </tspan>
<tspan x="10" y="138">  │ ├── level-packager@1.2.1 </tspan>
<tspan x="10" y="154">  │ └─┬ leveldown@1.6.0 </tspan>
<tspan x="10" y="170">  │   ├── abstract-leveldown@2.6.1 </tspan>
<tspan x="10" y="186">  │   ├── bindings@1.2.1 </tspan>
<tspan x="10" y="202">  │   ├── fast-future@1.0.2 </tspan>
<tspan x="10" y="218">  │   ├── nan@2.5.1 </tspan>
<tspan x="10" y="234">  │   └─┬ prebuild-install@2.1.2 </tspan>
<tspan x="10" y="250">  │     ├── expand-template@1.0.3 </tspan>
<tspan x="10" y="266">  │     ├── github-from-package@0.0.0 </tspan>
<tspan x="10" y="282">  │     ├── minimist@1.2.0 </tspan>
<tspan x="10" y="298">  │     ├─┬ mkdirp@0.5.1 </tspan>
<tspan x="10" y="314">  │     │ └── minimist@0.0.8 </tspan>
<tspan x="10" y="330">  │     ├── node-abi@2.0.0 </tspan>
<tspan x="10" y="346">  │     ├── noop-logger@0.1.1 </tspan>
<tspan x="10" y="362">  │     ├─┬ npmlog@4.0.2 </tspan>
<tspan x="10" y="378">  │     │ ├─┬ are-we-there-yet@1.1.4 </tspan>
<tspan x="10" y="394">  │     │ │ ├── delegates@1.0.0 </tspan>
<tspan x="10" y="410">  │     │ │ └─┬ readable-stream@2.2.9 </tspan>
<tspan x="10" y="426">  │     │ │   ├── isarray@1.0.0 </tspan>
<tspan x="10" y="442">  │     │ │   └── string_decoder@1.0.0 </tspan>
<tspan x="10" y="458">  │     │ ├── console-control-strings@1.1.0 </tspan>
<tspan x="10" y="474">  │     │ ├─┬ gauge@2.7.4 </tspan>
<tspan x="10" y="490">  │     │ │ ├── aproba@1.1.1 </tspan>
<tspan x="10" y="506">  │     │ │ ├── has-unicode@2.0.1 </tspan>
<tspan x="10" y="522">  │     │ │ ├── object-assign@4.1.1 </tspan>
<tspan x="10" y="538">  │     │ │ ├── signal-exit@3.0.2 </tspan>
<tspan x="10" y="554">  │     │ │ ├─┬ string-width@1.0.2 </tspan>
<tspan x="10" y="570">  │     │ │ │ ├── code-point-at@1.1.0 </tspan>
<tspan x="10" y="586">  │     │ │ │ └─┬ is-fullwidth-code-point@1.0.0 </tspan>
<tspan x="10" y="602">  │     │ │ │   └── number-is-nan@1.0.1 </tspan>
<tspan x="10" y="618">  │     │ │ ├─┬ strip-ansi@3.0.1 </tspan>
<tspan x="10" y="634">  │     │ │ │ └── ansi-regex@2.1.1 </tspan>
<tspan x="10" y="650">  │     │ │ └── wide-align@1.1.0 </tspan>
<tspan x="10" y="666">  │     │ └── set-blocking@2.0.0 </tspan>
<tspan x="10" y="682">  │     ├── os-homedir@1.0.2 </tspan>
<tspan x="10" y="698">  │     ├─┬ rc@1.2.1 </tspan>
<tspan x="10" y="714">  │     │ ├── deep-extend@0.4.1 </tspan>
<tspan x="10" y="730">  │     │ ├── ini@1.3.4 </tspan>
<tspan x="10" y="746">  │     │ └── strip-json-comments@2.0.1 </tspan>
<tspan x="10" y="762">  │     ├─┬ simple-get@1.4.3 </tspan>
<tspan x="10" y="778">  │     │ └── unzip-response@1.0.2 </tspan>
<tspan x="10" y="794">  │     ├─┬ tar-fs@1.15.2 </tspan>
<tspan x="10" y="810">  │     │ ├── chownr@1.0.1 </tspan>
<tspan x="10" y="826">  │     │ └─┬ tar-stream@1.5.2 </tspan>
<tspan x="10" y="842">  │     │   ├─┬ bl@1.2.0 </tspan>
<tspan x="10" y="858">  │     │   │ └─┬ readable-stream@2.2.9 </tspan>
<tspan x="10" y="874">  │     │   │   ├── isarray@1.0.0 </tspan>
<tspan x="10" y="890">  │     │   │   └── string_decoder@1.0.0 </tspan>
<tspan x="10" y="906">  │     │   └─┬ readable-stream@2.2.9 </tspan>
<tspan x="10" y="922">  │     │     ├── isarray@1.0.0 </tspan>
<tspan x="10" y="938">  │     │     └── string_decoder@1.0.0 </tspan>
<tspan x="10" y="954">  │     └── tunnel-agent@0.4.3 </tspan>
<tspan x="10" y="970">  ├─┬ multileveldown@2.3.0 </tspan>
<tspan x="10" y="986">  │ ├─┬ abstract-leveldown@2.4.1 </tspan>
<tspan x="10" y="1002">  │ │ └── xtend@4.0.1 </tspan>
<tspan x="10" y="1018">  │ ├─┬ brfs@1.4.3 </tspan>
<tspan x="10" y="1034">  │ │ ├─┬ quote-stream@1.0.2 </tspan>
<tspan x="10" y="1050">  │ │ │ └── buffer-equal@0.0.1 </tspan>
<tspan x="10" y="1066">  │ │ ├─┬ resolve@1.3.3 </tspan>
<tspan x="10" y="1082">  │ │ │ └── path-parse@1.0.5 </tspan>
<tspan x="10" y="1098">  │ │ ├─┬ static-module@1.3.1 </tspan>
<tspan x="10" y="1114">  │ │ │ ├─┬ concat-stream@1.4.10 </tspan>
<tspan x="10" y="1130">  │ │ │ │ └── typedarray@0.0.6 </tspan>
<tspan x="10" y="1146">  │ │ │ ├── duplexer2@0.0.2 </tspan>
<tspan x="10" y="1162">  │ │ │ ├─┬ escodegen@1.3.3 </tspan>
<tspan x="10" y="1178">  │ │ │ │ ├── esprima@1.1.1 </tspan>
<tspan x="10" y="1194">  │ │ │ │ ├── estraverse@1.5.1 </tspan>
<tspan x="10" y="1210">  │ │ │ │ ├── esutils@1.0.0 </tspan>
<tspan x="10" y="1226">  │ │ │ │ └─┬ source-map@0.1.43 </tspan>
<tspan x="10" y="1242">  │ │ │ │   └── amdefine@1.0.1 </tspan>
<tspan x="10" y="1258">  │ │ │ ├─┬ falafel@1.2.0 </tspan>
<tspan x="10" y="1274">  │ │ │ │ ├── acorn@1.2.2 </tspan>
<tspan x="10" y="1290">  │ │ │ │ ├── foreach@2.0.5 </tspan>
<tspan x="10" y="1306">  │ │ │ │ ├── isarray@0.0.1 </tspan>
<tspan x="10" y="1322">  │ │ │ │ └── object-keys@1.0.11 </tspan>
<tspan x="10" y="1338">  │ │ │ ├── object-inspect@0.4.0 </tspan>
<tspan x="10" y="1354">  │ │ │ ├─┬ quote-stream@0.0.0 </tspan>
<tspan x="10" y="1370">  │ │ │ │ └── minimist@0.0.8 </tspan>
<tspan x="10" y="1386">  │ │ │ ├─┬ readable-stream@1.0.34 </tspan>
<tspan x="10" y="1402">  │ │ │ │ └── string_decoder@0.10.31 </tspan>
<tspan x="10" y="1418">  │ │ │ ├── shallow-copy@0.0.1 </tspan>
<tspan x="10" y="1434">  │ │ │ ├─┬ static-eval@0.2.4 </tspan>
<tspan x="10" y="1450">  │ │ │ │ └─┬ escodegen@0.0.28 </tspan>
<tspan x="10" y="1466">  │ │ │ │   ├── esprima@1.0.4 </tspan>
<tspan x="10" y="1482">  │ │ │ │   └── estraverse@1.3.2 </tspan>
<tspan x="10" y="1498">  │ │ │ └─┬ through2@0.4.2 </tspan>
<tspan x="10" y="1514">  │ │ │   └─┬ xtend@2.1.2 </tspan>
<tspan x="10" y="1530">  │ │ │     └── object-keys@0.4.0 </tspan>
<tspan x="10" y="1546">  │ │ └─┬ through2@2.0.3 </tspan>
<tspan x="10" y="1562">  │ │   └─┬ readable-stream@2.2.9 </tspan>
<tspan x="10" y="1578">  │ │     ├── isarray@1.0.0 </tspan>
<tspan x="10" y="1594">  │ │     └── string_decoder@1.0.0 </tspan>
<tspan x="10" y="1610">  │ ├─┬ duplexify@3.5.0 </tspan>
<tspan x="10" y="1626">  │ │ ├─┬ end-of-stream@1.0.0 </tspan>
<tspan x="10" y="1642">  │ │ │ └── once@1.3.3 </tspan>
<tspan x="10" y="1658">  │ │ ├── inherits@2.0.3 </tspan>
<tspan x="10" y="1674">  │ │ ├─┬ readable-stream@2.2.9 </tspan>
<tspan x="10" y="1690">  │ │ │ ├── buffer-shims@1.0.0 </tspan>
<tspan x="10" y="1706">  │ │ │ ├── core-util-is@1.0.2 </tspan>
<tspan x="10" y="1722">  │ │ │ ├── isarray@1.0.0 </tspan>
<tspan x="10" y="1738">  │ │ │ ├── process-nextick-args@1.0.7 </tspan>
<tspan x="10" y="1754">  │ │ │ ├── string_decoder@1.0.0 </tspan>
<tspan x="10" y="1770">  │ │ │ └── util-deprecate@1.0.2 </tspan>
<tspan x="10" y="1786">  │ │ └── stream-shift@1.0.0 </tspan>
<tspan x="10" y="1802">  │ ├── end-of-stream@1.4.0 </tspan>
<tspan x="10" y="1818">  │ ├─┬ length-prefixed-stream@1.5.1 </tspan>
<tspan x="10" y="1834">  │ │ ├─┬ readable-stream@2.2.9 </tspan>
<tspan x="10" y="1850">  │ │ │ ├── isarray@1.0.0 </tspan>
<tspan x="10" y="1866">  │ │ │ └── string_decoder@1.0.0 </tspan>
<tspan x="10" y="1882">  │ │ └── varint@5.0.0 </tspan>
<tspan x="10" y="1898">  │ ├─┬ levelup@1.3.5 </tspan>
<tspan x="10" y="1914">  │ │ ├── deferred-leveldown@1.2.1 </tspan>
<tspan x="10" y="1930">  │ │ ├── level-codec@6.1.0 </tspan>
<tspan x="10" y="1946">  │ │ ├─┬ level-errors@1.0.4 </tspan>
<tspan x="10" y="1962">  │ │ │ └─┬ errno@0.1.4 </tspan>
<tspan x="10" y="1978">  │ │ │   └── prr@0.0.0 </tspan>
<tspan x="10" y="1994">  │ │ ├─┬ level-iterator-stream@1.3.1 </tspan>
<tspan x="10" y="2010">  │ │ │ └── readable-stream@1.1.14 </tspan>
<tspan x="10" y="2026">  │ │ ├── prr@1.0.1 </tspan>
<tspan x="10" y="2042">  │ │ └── semver@5.1.1 </tspan>
<tspan x="10" y="2058">  │ ├── numeric-id-map@1.1.0 </tspan>
<tspan x="10" y="2074">  │ └─┬ protocol-buffers@3.2.1 </tspan>
<tspan x="10" y="2090">  │   ├── generate-function@2.0.0 </tspan>
<tspan x="10" y="2106">  │   ├─┬ generate-object-property@1.2.0 </tspan>
<tspan x="10" y="2122">  │   │ └── is-property@1.0.2 </tspan>
<tspan x="10" y="2138">  │   ├── protocol-buffers-schema@3.3.0 </tspan>
<tspan x="10" y="2154">  │   └── signed-varint@2.0.1 </tspan>
<tspan x="10" y="2170">  └─┬ pump@1.0.2 </tspan>
<tspan x="10" y="2186">    └─┬ once@1.4.0 </tspan>
<tspan x="10" y="2202">      └── wrappy@1.0.2</tspan>
</text>
</svg>
